HIERARCHY
ROOT Hips
{
	OFFSET 55.310501 45.591206 43.872097
	CHANNELS 6 Xposition Yposition Zposition Zrotation Xrotation Yrotation
	JOINT Chest
	{
		OFFSET -0.153500 1.163101 7.852402
		CHANNELS 6 Xposition Yposition Zposition Zrotation Xrotation Yrotation
		JOINT Chest2
		{
			OFFSET 0.000000 0.000000 3.343300
			CHANNELS 6 Xposition Yposition Zposition Zrotation Xrotation Yrotation
			JOINT Neck
			{
				OFFSET 0.000000 0.000000 7.785500
				CHANNELS 6 Xposition Yposition Zposition Zrotation Xrotation Yrotation
				JOINT Head
				{
					OFFSET 0.000000 0.000000 2.173901
					CHANNELS 6 Xposition Yposition Zposition Zrotation Xrotation Yrotation
					End Site
					{
						OFFSET 0.000000 0.000000 10.528198
					}
				}
			}
			JOINT LeftCollar
			{
				OFFSET 2.676300 -1.652401 4.938301
				CHANNELS 6 Xposition Yposition Zposition Zrotation Xrotation Yrotation
				JOINT LeftShoulder
				{
					OFFSET 4.299000 0.000000 0.000000
					CHANNELS 6 Xposition Yposition Zposition Zrotation Xrotation Yrotation
					JOINT LeftElbow
					{
						OFFSET 0.000000 0.000000 -10.245102
						CHANNELS 6 Xposition Yposition Zposition Zrotation Xrotation Yrotation
						JOINT LeftWrist
						{
							OFFSET 0.000000 0.000000 -12.703300
							CHANNELS 6 Xposition Yposition Zposition Zrotation Xrotation Yrotation
							End Site
							{
								OFFSET 0.000000 0.000000 -2.173901
							}
						}
					}
				}
			}
			JOINT RightCollar
			{
				OFFSET -2.534599 -1.686401 5.195000
				CHANNELS 6 Xposition Yposition Zposition Zrotation Xrotation Yrotation
				JOINT RightShoulder
				{
					OFFSET -4.144100 0.000000 0.000000
					CHANNELS 6 Xposition Yposition Zposition Zrotation Xrotation Yrotation
					JOINT RightElbow
					{
						OFFSET 0.000000 0.000000 -10.116501
						CHANNELS 6 Xposition Yposition Zposition Zrotation Xrotation Yrotation
						JOINT RightWrist
						{
							OFFSET 0.000000 0.000000 -12.937801
							CHANNELS 6 Xposition Yposition Zposition Zrotation Xrotation Yrotation
							End Site
							{
								OFFSET 0.000000 0.000000 -2.173901
							}
						}
					}
				}
			}
		}
	}
	JOINT LeftHip
	{
		OFFSET 2.175598 0.064499 -2.662899
		CHANNELS 6 Xposition Yposition Zposition Zrotation Xrotation Yrotation
		JOINT LeftKnee
		{
			OFFSET 0.000000 -0.000004 -18.585800
			CHANNELS 6 Xposition Yposition Zposition Zrotation Xrotation Yrotation
			JOINT LeftAnkle
			{
				OFFSET 0.000000 0.000000 -18.979500
				CHANNELS 6 Xposition Yposition Zposition Zrotation Xrotation Yrotation
				End Site
				{
					OFFSET 0.000000 -9.264000 0.000000
				}
			}
		}
	}
	JOINT RightHip
	{
		OFFSET -2.092400 -0.058102 -2.581200
		CHANNELS 6 Xposition Yposition Zposition Zrotation Xrotation Yrotation
		JOINT RightKnee
		{
			OFFSET 0.000000 -0.000004 -18.665001
			CHANNELS 6 Xposition Yposition Zposition Zrotation Xrotation Yrotation
			JOINT RightAnkle
			{
				OFFSET 0.000000 0.000000 -18.566601
				CHANNELS 6 Xposition Yposition Zposition Zrotation Xrotation Yrotation
				End Site
				{
					OFFSET 0.000000 -8.497601 0.000000
				}
			}
		}
	}
}
MOTION
Frames: 9
Frame Time: 0.041667
46.661301 70.541992 38.652397 713.346432 24.899340 -5.539907 -0.153509 1.163090 7.852416 3.442807 22.888626 1.542092 -0.000003 -0.000003 3.343305 13.905731 -5.533882 2.282903 0.000005 -0.000001 7.785502 -21.232707 0.516389 8.358937 -0.000003 0.000001 2.173913 -2.366284 -0.925943 -5.404877 2.676299 -1.652401 4.938307 -0.661064 4.486142 13.953341 4.299006 0.000006 0.000002 -23.887318 24.905834 -60.855510 -0.000009 0.000009 -10.245102 175.037750 179.503792 181.155618 0.000000 0.000017 -12.703301 559.589640 173.937802 205.532031 -2.534595 -1.686401 5.195006 22.201038 23.913817 16.408776 -4.144104 0.000004 0.000003 65.050968 -23.083854 91.439786 0.000007 0.000010 -10.116491 -15.592246 -22.097095 -19.611683 -0.000011 -0.000004 -12.937803 60.019386 -22.232575 -13.951383 2.175592 0.064498 -2.662893 -293.166800 -40.462075 57.763723 0.000002 -0.000007 -18.585791 107.018785 -234.939765 -133.070363 -0.000003 -0.000004 -18.979498 367.901446 2.850657 -6.296883 -2.092407 -0.058115 -2.581194 -58.082672 -34.031315 -28.332255 0.000006 0.000000 -18.665009 -648.782403 63.306872 -67.154017 -0.000004 -0.000002 -18.566597 662.406936 -26.877409 -51.587736
46.566502 70.314499 38.933697 713.123222 23.941553 -5.482849 -0.153497 1.163099 7.852403 3.820743 22.355078 1.364727 0.000001 -0.000007 3.343297 13.898873 -5.485281 2.279415 0.000005 0.000007 7.785511 -21.701608 1.048930 8.298279 -0.000005 -0.000007 2.173903 -2.406366 -0.814022 -5.634626 2.676302 -1.652398 4.938310 -0.481002 4.501922 13.841089 4.299001 0.000010 -0.000006 -21.998100 26.300338 -61.625232 -0.000014 0.000002 -10.245104 175.079564 179.322669 181.149649 -0.000004 0.000011 -12.703308 560.484832 173.756065 206.458532 -2.534595 -1.686393 5.195004 21.807365 23.901258 16.627078 -4.144115 0.000003 -0.000007 65.857203 -23.610040 93.000081 0.000005 0.000003 -10.116491 -19.352576 -23.360403 -23.067144 0.000002 0.000010 -12.937799 64.976443 -22.825763 -12.374215 2.175596 0.064495 -2.662895 -295.258341 -40.352208 55.136740 0.000000 -0.000008 -18.585789 111.342479 -235.957409 -136.106696 -0.000002 0.000002 -18.979502 365.961263 3.391868 -8.628733 -2.092397 -0.058109 -2.581196 -57.011268 -33.172262 -26.684530 0.000010 -0.000010 -18.665012 -650.493447 62.806403 -65.356243 -0.000001 -0.000005 -18.566593 662.523650 -26.832309 -51.341661
46.467804 70.085693 39.220398 712.876898 22.976758 -5.438909 -0.153502 1.163102 7.852402 4.214283 21.810522 1.218552 -0.000001 0.000012 3.343300 13.922800 -5.412231 2.571407 0.000001 0.000007 7.785501 -22.221158 1.682380 7.966618 -0.000001 0.000009 2.173899 -2.541553 -0.678423 -5.558751 2.676301 -1.652391 4.938300 -0.217169 7.646325 13.669824 4.299003 0.000004 -0.000002 -20.248914 24.884355 -64.082037 0.000004 -0.000007 -10.245108 175.351009 179.182254 181.157476 -0.000005 -0.000011 -12.703304 560.662034 173.660579 207.672011 -2.534591 -1.686395 5.195004 21.346496 23.788944 16.958361 -4.144102 0.000005 -0.000011 66.569059 -24.421457 94.617026 0.000006 0.000013 -10.116497 -22.987002 -24.479782 -26.661731 -0.000003 0.000012 -12.937807 69.520445 -23.701339 -11.802505 2.175599 0.064487 -2.662905 -297.430587 -40.229930 52.481872 -0.000009 -0.000001 -18.585796 116.588993 -237.106192 -139.807811 -0.000004 -0.000019 -18.979496 363.637359 3.937303 -10.983747 -2.092396 -0.058104 -2.581202 -55.930134 -32.292595 -25.014378 0.000014 -0.000005 -18.665010 -652.224381 62.211159 -63.613745 0.000002 0.000004 -18.566608 662.634955 -26.698369 -50.922472
46.367203 69.856201 39.508991 712.578610 21.995321 -5.414482 -0.153504 1.163101 7.852407 4.637798 21.288824 1.146350 0.000005 0.000001 3.343305 13.905752 -5.366876 2.540116 0.000005 0.000004 7.785502 -22.731527 2.191093 7.911385 0.000002 0.000000 2.173902 -2.511996 -0.459290 -6.064598 2.676291 -1.652398 4.938297 -0.229922 8.001814 13.714604 4.299000 0.000004 -0.000011 -17.997274 25.729029 -65.527585 0.000004 0.000003 -10.245102 175.593905 178.956052 181.119828 -0.000004 0.000002 -12.703293 561.812019 173.350228 208.432361 -2.534598 -1.686399 5.194996 20.992603 23.971053 16.861784 -4.144104 -0.000004 0.000001 67.041852 -24.631163 96.740354 0.000003 0.000006 -10.116497 -26.541403 -25.429365 -30.316679 0.000004 -0.000002 -12.937803 73.693138 -24.544619 -10.829208 2.175594 0.064495 -2.662899 -299.713564 -40.001573 49.743974 -0.000002 -0.000004 -18.585808 122.293963 -237.983380 -143.901936 -0.000010 -0.000004 -18.979500 361.913774 5.273686 -16.742479 -2.092404 -0.058109 -2.581196 -54.764651 -31.413252 -23.284648 -0.000001 -0.000010 -18.665009 -658.017583 64.351283 -58.674426 -0.000006 -0.000003 -18.566605 666.260966 -26.565806 -49.757679
46.266506 69.624489 39.794796 712.277917 20.981882 -5.401555 -0.153507 1.163095 7.852407 5.067493 20.791941 1.032061 0.000002 0.000006 3.343305 13.909743 -5.311097 2.515034 0.000000 0.000000 7.785514 -23.235404 2.681271 7.901863 0.000003 0.000009 2.173901 -2.611348 -0.279070 -6.276354 2.676302 -1.652394 4.938313 -0.354148 8.420465 13.824159 4.299002 0.000010 0.000008 -15.566742 26.439664 -67.159563 -0.000001 -0.000004 -10.245109 175.955823 178.894088 181.180617 0.000004 0.000002 -12.703301 562.327944 173.004962 209.056067 -2.534594 -1.686395 5.195009 20.625583 24.143942 16.767983 -4.144107 -0.000001 -0.000008 67.323126 -24.705657 98.954271 0.000004 0.000005 -10.116501 -30.129320 -26.138813 -33.984764 -0.000002 0.000003 -12.937809 77.383960 -25.189118 -9.876008 2.175595 0.064493 -2.662888 -301.906874 -39.603954 47.097542 -0.000007 -0.000018 -18.585812 128.693359 -238.833520 -148.635162 -0.000004 -0.000006 -18.979498 359.006545 5.272102 -16.819493 -2.092405 -0.058104 -2.581194 -53.343846 -30.538616 -21.380391 0.000006 -0.000009 -18.665007 -661.384211 64.313102 -55.874192 -0.000002 -0.000003 -18.566605 667.358987 -26.252708 -48.827144
46.165203 69.393494 40.076195 711.961215 19.937776 -5.457597 -0.153503 1.163101 7.852404 5.490102 20.328506 0.966015 0.000000 0.000008 3.343294 13.887524 -5.249808 2.490320 0.000000 0.000006 7.785501 -23.727071 3.187131 7.934209 -0.000002 -0.000003 2.173894 -2.758237 -0.137635 -6.512401 2.676296 -1.652398 4.938298 -0.509780 8.789050 13.880202 4.298999 0.000014 -0.000008 -13.155206 26.845360 -68.940405 -0.000008 -0.000000 -10.245094 176.021802 178.780283 181.239520 -0.000002 0.000001 -12.703290 562.993369 172.788281 209.630595 -2.534593 -1.686396 5.195000 20.232287 24.239669 16.715764 -4.144102 -0.000001 -0.000004 67.460303 -24.722660 101.190639 0.000010 0.000001 -10.116503 -33.439223 -26.641993 -37.520288 0.000001 0.000005 -12.937799 80.501265 -25.658816 -8.755748 2.175589 0.064499 -2.662897 -303.874679 -38.948655 44.624170 -0.000000 0.000000 -18.585815 135.082960 -239.408403 -153.454789 -0.000006 0.000007 -18.979500 356.031725 5.296829 -16.927548 -2.092406 -0.058109 -2.581192 -51.441689 -29.695897 -19.230671 0.000003 -0.000002 -18.665010 -665.256491 64.114132 -52.931989 0.000002 0.000004 -18.566595 668.394007 -25.827816 -47.767126
46.062008 69.166100 40.351891 711.648338 18.892916 -5.455775 -0.153500 1.163103 7.852405 5.944324 19.812970 0.813376 0.000006 0.000011 3.343301 13.796717 -5.166299 2.462472 -0.000003 0.000011 7.785512 -24.165774 3.733697 7.988321 0.000005 -0.000002 2.173903 -2.876642 -0.015950 -6.728191 2.676295 -1.652392 4.938309 -0.722080 9.098688 13.790331 4.298993 0.000010 -0.000004 -10.575703 26.991137 -70.632161 -0.000004 0.000015 -10.245107 175.917983 178.719126 181.231392 -0.000006 0.000005 -12.703300 563.505906 172.586613 210.037087 -2.534594 -1.686388 5.195009 19.874397 24.335795 16.784847 -4.144112 -0.000007 0.000000 67.525101 -24.841029 103.364825 0.000006 -0.000005 -10.116499 -36.562648 -27.076342 -40.724436 -0.000003 0.000006 -12.937802 82.996265 -26.198840 -7.590102 2.175594 0.064510 -2.662891 -305.666566 -38.118381 42.527927 -0.000011 0.000002 -18.585804 136.786040 -238.681889 -155.233165 -0.000013 0.000002 -18.979500 355.638115 5.206444 -16.335208 -2.092405 -0.058105 -2.581194 -49.135575 -28.805479 -16.923537 0.000000 -0.000012 -18.665012 -669.466947 63.702722 -50.065492 -0.000001 0.000004 -18.566601 669.344168 -25.414219 -46.770854
45.957504 68.938103 40.619995 711.300763 17.812957 -5.455655 -0.153501 1.163101 7.852387 6.429029 19.336479 0.656979 0.000004 0.000006 3.343304 13.679188 -5.079741 2.436754 -0.000001 -0.000012 7.785500 -24.558307 4.295183 8.041276 -0.000005 -0.000009 2.173901 -3.056550 0.066873 -6.893694 2.676297 -1.652407 4.938296 -0.911127 9.323166 13.515588 4.299003 0.000009 -0.000008 -8.110023 26.960895 -72.181002 -0.000006 0.000002 -10.245102 175.619122 178.604584 181.198539 -0.000004 0.000000 -12.703293 564.072047 172.424656 210.315089 -2.534598 -1.686401 5.195004 19.471235 24.314191 16.974845 -4.144099 -0.000003 -0.000009 67.560946 -25.042902 105.409893 0.000008 0.000002 -10.116503 -39.441593 -27.332559 -43.530216 0.000002 0.000005 -12.937801 84.867231 -26.817710 -7.133313 2.175593 0.064495 -2.662899 -307.301030 -37.128464 40.487879 -0.000005 -0.000006 -18.585798 138.037577 -237.845000 -156.665374 0.000002 -0.000005 -18.979496 355.488233 5.103837 -15.756051 -2.092403 -0.058104 -2.581200 -46.133280 -27.855209 -14.320817 0.000007 -0.000012 -18.665003 -674.418070 63.085137 -47.076164 -0.000001 -0.000001 -18.566587 670.276625 -24.940699 -45.678382
45.848404 68.711197 40.882992 710.885925 16.724780 -5.404280 -0.153495 1.163110 7.852411 6.992708 18.880277 0.437375 -0.000004 -0.000002 3.343299 13.509102 -4.978506 2.412149 0.000004 0.000009 7.785504 -24.880014 4.861764 8.115888 -0.000001 -0.000000 2.173903 -3.291660 0.088775 -7.030353 2.676303 -1.652393 4.938306 -0.931073 9.357766 13.024647 4.298995 0.000013 -0.000003 -5.901280 26.933977 -73.555769 -0.000002 0.000002 -10.245114 175.364110 178.484932 181.101783 -0.000006 0.000010 -12.703300 564.487978 172.200325 210.571590 -2.534592 -1.686396 5.195005 18.947739 24.093089 17.406105 -4.144104 -0.000002 -0.000008 67.614174 -25.307849 107.222973 0.000006 0.000001 -10.116497 -42.056839 -27.408712 -45.954660 -0.000001 0.000004 -12.937807 86.266942 -27.129875 -5.696240 2.175605 0.064507 -2.662888 -309.047919 -36.183996 38.348999 -0.000000 -0.000004 -18.585800 139.142264 -236.901642 -157.830072 0.000001 -0.000005 -18.979498 355.552136 4.997280 -15.157733 -2.092385 -0.058100 -2.581182 -43.100772 -26.750310 -11.819326 0.000004 -0.000004 -18.665005 -679.145325 62.349676 -44.374663 -0.000000 -0.000001 -18.566607 671.148321 -24.515690 -44.663703
